<svg id="Lag_1" data-name="Lag 1" xmlns="http://www.w3.org/2000/svg" viewBox="0 0 266.64 112.33"><defs><style>.cls-1,.cls-2{fill:#9f1f00;}.cls-1{opacity:0.5;}</style></defs><circle class="cls-1" cx="210.6" cy="56.28" r="56.05"/><g id="kk1t5U"><path class="cls-2" d="M261.83,132.79c-.62-6-3.23-10.88-8.35-14.22a21.73,21.73,0,0,0-11.82-3.25q-11.82-.19-23.63-.18c-2.59,0-5.18.13-7.78.37a19.51,19.51,0,0,0-11,4.37c-4.65,3.89-6.62,9.07-6.77,14.92-.23,9.2-.17,18.41-.19,27.61a42.65,42.65,0,0,0,.32,4.93,19.72,19.72,0,0,0,5.1,11.69c3.83,4,8.67,5.67,14,5.95,5.14.26,10.3.28,15.39.41,5.21-.13,10.32-.15,15.44-.39,5.4-.23,10.3-1.86,14.17-5.91,3.66-3.83,5.14-8.54,5.29-13.66.21-7.64.24-15.3.24-23A86.84,86.84,0,0,0,261.83,132.79Zm-6.06,31.51a20.47,20.47,0,0,1-.69,5c-1.34,5.2-4.81,8.32-10.06,9-4,.54-8.13.49-12.2.64-1.91.07-3.79,0-5.7,0v.09c-4.75-.11-9.48-.15-14.23-.32a24,24,0,0,1-4.78-.69c-5.26-1.35-8.22-4.92-9-10.19a53.82,53.82,0,0,1-.56-8.33c0-7.79,0-15.56.17-23.33a21.15,21.15,0,0,1,.65-4.88c1.32-5.38,4.9-8.44,10.29-9.27a52.77,52.77,0,0,1,8-.54c7.77,0,15.57,0,23.34.15a22.83,22.83,0,0,1,5,.62c5.4,1.29,8.5,4.82,9.38,10.19a45.4,45.4,0,0,1,.54,7.28Q256,152,255.77,164.3Z" transform="translate(-16.68 -93.97)"/><path class="cls-2" d="M227.23,132.16a18,18,0,1,0,18,18.14A18,18,0,0,0,227.23,132.16Zm0,29.7a11.69,11.69,0,1,1,11.71-11.75A11.65,11.65,0,0,1,227.21,161.86Z" transform="translate(-16.68 -93.97)"/><path class="cls-2" d="M250.16,131.44a4.15,4.15,0,0,1-4.09,4.21,4.2,4.2,0,1,1-.13-8.39A4.14,4.14,0,0,1,250.16,131.44Z" transform="translate(-16.68 -93.97)"/></g><circle class="cls-1" cx="56.05" cy="56.05" r="56.05"/><path class="cls-2" d="M97.71,153.08c0,.43-.09.79-.13,1.18-.19,1.54-.41,3.08-.6,4.62s-.41,3.13-.62,4.69c-.17,1.33-.36,2.66-.51,4,0,.26-.13.32-.37.32h-12c-.43,0-.43,0-.43.43v37.45c0,.55.07.47-.49.47H68c-.36,0-.36,0-.36-.37V168.37a1.5,1.5,0,0,0,0-.3c0-.09-.11-.15-.19-.2a1.31,1.31,0,0,0-.28,0H55.08c-.38,0-.38,0-.38-.38v-14c0-.39,0-.39.38-.39H67.22c.39,0,.39,0,.39-.38v-9.85a30.91,30.91,0,0,1,.53-6.23,18,18,0,0,1,3.45-7.71,16.38,16.38,0,0,1,8-5.48,24.15,24.15,0,0,1,8.2-1.05c1.39,0,2.78,0,4.17.09,2,.1,4,.27,6,.4.28,0,.3.15.3.37v11.6c0,.36,0,.71,0,1.07s-.08.3-.32.3H91.14a16,16,0,0,0-3.66.28A5.21,5.21,0,0,0,84,138.67a5.85,5.85,0,0,0-.94,3c-.09,2-.09,4-.11,6,0,1.69,0,3.39,0,5.1,0,.36,0,.36.36.36H97.26A3,3,0,0,1,97.71,153.08Z" transform="translate(-16.68 -93.97)"/></svg>